<?xml version="1.0" encoding="utf-8"?>
<!-- Generator: Adobe Illustrator 15.0.2, SVG Export Plug-In . SVG Version: 6.00 Build 0)  -->
<!DOCTYPE svg PUBLIC "-//W3C//DTD SVG 1.1//EN" "http://www.w3.org/Graphics/SVG/1.1/DTD/svg11.dtd">
<svg version="1.1" id="SVGs" xmlns="http://www.w3.org/2000/svg" xmlns:xlink="http://www.w3.org/1999/xlink" x="0px" y="0px"
	 width="53.846px" height="48.951px" viewBox="0 0 53.846 48.951" enable-background="new 0 0 53.846 48.951" xml:space="preserve">
<g id="MatchMemoPool">
	<path fill="#FFFFFF" d="M40.394,28.736c0.189,1.088-0.539,2.124-1.627,2.313l-20.659,1.944c-1.088,0.189-2.124-0.539-2.313-1.627
		l-2.916-16.748c-0.189-1.088,0.539-2.124,1.627-2.313c0,0,3.548-0.502,4.709-0.641c1.161-0.14,1.301,0.655,1.301,0.655l0.362,2.065
		l15.287-2.025c1.088-0.189,2.124,0.539,2.313,1.628L40.394,28.736z"/>
	<g>
		<linearGradient id="SVGID_1_" gradientUnits="userSpaceOnUse" x1="27.8296" y1="25.0942" x2="23.2992" y2="9.319">
			<stop  offset="0.1311" style="stop-color:#FFFF00"/>
			<stop  offset="0.2549" style="stop-color:#FFFF2F"/>
			<stop  offset="0.4609" style="stop-color:#FFFF78"/>
			<stop  offset="0.646" style="stop-color:#FFFFB2"/>
			<stop  offset="0.8031" style="stop-color:#FFFFDC"/>
			<stop  offset="0.9262" style="stop-color:#FFFFF6"/>
			<stop  offset="1" style="stop-color:#FFFFFF"/>
		</linearGradient>
		<path fill="url(#SVGID_1_)" d="M15.857,29.391c-0.532-4.049,4.551-8.055,11.353-8.949c5.714-0.751,10.808,0.938,12.613,3.897
			l-1.345-10.351c-0.189-1.089-1.225-1.817-2.313-1.628l-15.287,2.025l-0.362-2.065c0,0-0.14-0.795-1.301-0.655
			c-1.161,0.139-4.709,0.641-4.709,0.641c-1.088,0.189-1.817,1.226-1.627,2.313l2.916,16.748c0.189,1.088,1.225,1.816,2.313,1.627
			l0.088-0.008C16.893,32.021,16.042,30.8,15.857,29.391z"/>
		<linearGradient id="SVGID_2_" gradientUnits="userSpaceOnUse" x1="37.2798" y1="22.3818" x2="32.7492" y2="6.6059">
			<stop  offset="0.1311" style="stop-color:#FFFF00"/>
			<stop  offset="0.2549" style="stop-color:#FFFF2F"/>
			<stop  offset="0.4609" style="stop-color:#FFFF78"/>
			<stop  offset="0.646" style="stop-color:#FFFFB2"/>
			<stop  offset="0.8031" style="stop-color:#FFFFDC"/>
			<stop  offset="0.9262" style="stop-color:#FFFFF6"/>
			<stop  offset="1" style="stop-color:#FFFFFF"/>
		</linearGradient>
		<path fill="url(#SVGID_2_)" d="M40.311,28.097c-0.314,1.054-0.974,2.069-1.922,2.988l0.377-0.035
			c1.088-0.189,1.817-1.226,1.627-2.313L40.311,28.097z"/>
		
			<radialGradient id="SVGID_3_" cx="28.0649" cy="26.625" r="9.7579" gradientTransform="matrix(1 0 0 0.75 0 6.6562)" gradientUnits="userSpaceOnUse">
			<stop  offset="0.0245" style="stop-color:#FFFF00"/>
			<stop  offset="0.2932" style="stop-color:#FDDE19"/>
			<stop  offset="0.5618" style="stop-color:#FCC52C"/>
			<stop  offset="0.8051" style="stop-color:#FBB537"/>
			<stop  offset="1" style="stop-color:#FBB03B"/>
		</radialGradient>
		<path fill="url(#SVGID_3_)" d="M39.823,24.339c-1.805-2.959-6.899-4.648-12.613-3.897c-6.802,0.895-11.885,4.9-11.353,8.949
			c0.185,1.409,1.036,2.631,2.339,3.596l20.193-1.901c0.948-0.919,1.608-1.935,1.922-2.988L39.823,24.339z"/>
	</g>
	<path fill="none" stroke="#FF931E" stroke-width="0.75" stroke-linejoin="round" stroke-miterlimit="10" d="M40.394,28.736
		c0.189,1.088-0.539,2.124-1.627,2.313l-20.659,1.944c-1.088,0.189-2.124-0.539-2.313-1.627l-2.916-16.748
		c-0.189-1.088,0.539-2.124,1.627-2.313c0,0,3.548-0.502,4.709-0.641c1.161-0.14,1.301,0.655,1.301,0.655l0.362,2.065l15.287-2.025
		c1.088-0.189,2.124,0.539,2.313,1.628L40.394,28.736z"/>
	<g>
		<polygon fill="#FFFFFF" stroke="#B3B3B3" stroke-miterlimit="10" points="41.136,37.633 27.136,37.633 27.136,20.633 
			38.714,20.633 41.136,22.521 		"/>
		<g>
			<rect x="36.636" y="32.133" fill="#DE7DB1" width="3" height="3"/>
			<rect x="32.636" y="32.133" fill="#C89CDC" width="3" height="3"/>
			<rect x="28.636" y="32.133" fill="#6578AE" width="3" height="3"/>
			<rect x="36.636" y="28.133" fill="#81ADE8" width="3" height="3"/>
			<rect x="32.636" y="28.133" fill="#88CB70" width="3" height="3"/>
			<rect x="28.636" y="28.133" fill="#D9EBB4" width="3" height="3"/>
			<rect x="36.636" y="24.133" fill="#E8D76E" width="3" height="3"/>
			<rect x="32.636" y="24.133" fill="#E8AE78" width="3" height="3"/>
			<rect x="28.636" y="24.133" fill="#DD776E" width="3" height="3"/>
		</g>
	</g>
</g>
</svg>
